<svg version="1.1" viewBox="0.0 0.0 600.0 406.0" fill="none" stroke="none" stroke-linecap="square" stroke-miterlimit="10" width="600" height="406" xmlns:xlink="http://www.w3.org/1999/xlink" xmlns="http://www.w3.org/2000/svg"><path fill="#ffffff" d="M0 0L600.0 0L600.0 406.0L0 406.0L0 0Z" fill-rule="nonzero"/><path stroke="#333333" stroke-width="1.0" stroke-linecap="butt" d="M64.5 353.5L578.5 353.5" fill-rule="nonzero"/><path stroke="#cccccc" stroke-width="1.0" stroke-linecap="butt" d="M64.5 281.5L578.5 281.5" fill-rule="nonzero"/><path stroke="#cccccc" stroke-width="1.0" stroke-linecap="butt" d="M64.5 209.5L578.5 209.5" fill-rule="nonzero"/><path stroke="#cccccc" stroke-width="1.0" stroke-linecap="butt" d="M64.5 138.5L578.5 138.5" fill-rule="nonzero"/><path stroke="#cccccc" stroke-width="1.0" stroke-linecap="butt" d="M64.5 66.5L578.5 66.5" fill-rule="nonzero"/><clipPath id="id_0"><path d="M64.27461 66.195656L578.575 66.195656L578.575 353.5338L64.27461 353.5338L64.27461 66.195656Z" clip-rule="nonzero"/></clipPath><path stroke="#000000" stroke-width="0.0" stroke-linecap="butt" stroke-opacity="0.0" clip-path="url(#id_0)" d="M160.0 354.0L98.0 354.0L98.0 340.0C98.0 338.89542 98.89543 338.0 100.0 338.0L158.0 338.0C159.10457 338.0 160.0 338.89542 160.0 340.0Z" fill-rule="nonzero"/><path fill="#0b8043" clip-path="url(#id_0)" d="M160.0 354.0L98.0 354.0L98.0 340.0C98.0 338.89542 98.89543 338.0 100.0 338.0L158.0 338.0C159.10457 338.0 160.0 338.89542 160.0 340.0Z" fill-rule="nonzero"/><path stroke="#000000" stroke-width="0.0" stroke-linecap="butt" stroke-opacity="0.0" clip-path="url(#id_0)" d="M256.0 354.0L194.0 354.0L194.0 193.0C194.0 191.89543 194.89543 191.0 196.0 191.0L254.0 191.0C255.10457 191.0 256.0 191.89543 256.0 193.0Z" fill-rule="nonzero"/><path fill="#0b8043" clip-path="url(#id_0)" d="M256.0 354.0L194.0 354.0L194.0 193.0C194.0 191.89543 194.89543 191.0 196.0 191.0L254.0 191.0C255.10457 191.0 256.0 191.89543 256.0 193.0Z" fill-rule="nonzero"/><path stroke="#000000" stroke-width="0.0" stroke-linecap="butt" stroke-opacity="0.0" clip-path="url(#id_0)" d="M352.0 354.0L290.0 354.0L290.0 101.0C290.0 99.89543 290.89542 99.0 292.0 99.0L350.0 99.0C351.10458 99.0 352.0 99.89543 352.0 101.0Z" fill-rule="nonzero"/><path fill="#0b8043" clip-path="url(#id_0)" d="M352.0 354.0L290.0 354.0L290.0 101.0C290.0 99.89543 290.89542 99.0 292.0 99.0L350.0 99.0C351.10458 99.0 352.0 99.89543 352.0 101.0Z" fill-rule="nonzero"/><path stroke="#000000" stroke-width="0.0" stroke-linecap="butt" stroke-opacity="0.0" clip-path="url(#id_0)" d="M449.0 354.0L387.0 354.0L387.0 208.0C387.0 206.89543 387.89542 206.0 389.0 206.0L447.0 206.0C448.10458 206.0 449.0 206.89543 449.0 208.0Z" fill-rule="nonzero"/><path fill="#0b8043" clip-path="url(#id_0)" d="M449.0 354.0L387.0 354.0L387.0 208.0C387.0 206.89543 387.89542 206.0 389.0 206.0L447.0 206.0C448.10458 206.0 449.0 206.89543 449.0 208.0Z" fill-rule="nonzero"/><path stroke="#000000" stroke-width="0.0" stroke-linecap="butt" stroke-opacity="0.0" clip-path="url(#id_0)" d="M545.0 354.0L483.0 354.0L483.0 317.0C483.0 315.89542 483.89542 315.0 485.0 315.0L543.0 315.0C544.10455 315.0 545.0 315.89542 545.0 317.0Z" fill-rule="nonzero"/><path fill="#0b8043" clip-path="url(#id_0)" d="M545.0 354.0L483.0 354.0L483.0 317.0C483.0 315.89542 483.89542 315.0 485.0 315.0L543.0 315.0C544.10455 315.0 545.0 315.89542 545.0 317.0Z" fill-rule="nonzero"/><path fill="#757575" d="M40.33711 354.3932Q40.33711 356.29944 39.68086 357.23694Q39.040234 358.1588 37.64961 358.1588Q36.290234 358.1588 35.633984 357.25256Q34.977734 356.3463 34.946484 354.5338L34.946484 353.0963Q34.946484 351.2057 35.58711 350.29944Q36.24336 349.37756 37.633984 349.37756Q39.008984 349.37756 39.665234 350.2682Q40.321484 351.1432 40.33711 352.98694L40.33711 354.3932ZM39.24336 352.9088Q39.24336 351.5338 38.852734 350.9088Q38.477734 350.2682 37.633984 350.2682Q36.80586 350.2682 36.415234 350.9088Q36.040234 351.5338 36.040234 352.8307L36.040234 354.56506Q36.040234 355.94006 36.43086 356.61194Q36.83711 357.2682 37.64961 357.2682Q38.446484 357.2682 38.83711 356.6432Q39.227734 356.0182 39.24336 354.69006L39.24336 352.9088ZM42.11836 357.4713Q42.11836 357.19006 42.27461 357.00256Q42.446484 356.81506 42.77461 356.81506Q43.11836 356.81506 43.290234 357.00256Q43.46211 357.19006 43.46211 357.4713Q43.46211 357.73694 43.290234 357.92444Q43.11836 358.0963 42.77461 358.0963Q42.446484 358.0963 42.27461 357.92444Q42.11836 357.73694 42.11836 357.4713ZM50.33711 354.3932Q50.33711 356.29944 49.68086 357.23694Q49.040234 358.1588 47.64961 358.1588Q46.290234 358.1588 45.633984 357.25256Q44.977734 356.3463 44.946484 354.5338L44.946484 353.0963Q44.946484 351.2057 45.58711 350.29944Q46.24336 349.37756 47.633984 349.37756Q49.008984 349.37756 49.665234 350.2682Q50.321484 351.1432 50.33711 352.98694L50.33711 354.3932ZM49.24336 352.9088Q49.24336 351.5338 48.852734 350.9088Q48.477734 350.2682 47.633984 350.2682Q46.80586 350.2682 46.415234 350.9088Q46.040234 351.5338 46.040234 352.8307L46.040234 354.56506Q46.040234 355.94006 46.43086 356.61194Q46.83711 357.2682 47.64961 357.2682Q48.446484 357.2682 48.83711 356.6432Q49.227734 356.0182 49.24336 354.69006L49.24336 352.9088ZM57.33711 354.3932Q57.33711 356.29944 56.68086 357.23694Q56.040234 358.1588 54.64961 358.1588Q53.290234 358.1588 52.633984 357.25256Q51.977734 356.3463 51.946484 354.5338L51.946484 353.0963Q51.946484 351.2057 52.58711 350.29944Q53.24336 349.37756 54.633984 349.37756Q56.008984 349.37756 56.665234 350.2682Q57.321484 351.1432 57.33711 352.98694L57.33711 354.3932ZM56.24336 352.9088Q56.24336 351.5338 55.852734 350.9088Q55.477734 350.2682 54.633984 350.2682Q53.80586 350.2682 53.415234 350.9088Q53.040234 351.5338 53.040234 352.8307L53.040234 354.56506Q53.040234 355.94006 53.43086 356.61194Q53.83711 357.2682 54.64961 357.2682Q55.446484 357.2682 55.83711 356.6432Q56.227734 356.0182 56.24336 354.69006L56.24336 352.9088Z" fill-rule="nonzero"/><path fill="#757575" d="M33.571484 286.19928L27.977734 286.19928L27.977734 285.41803L30.930859 282.13678Q31.587109 281.38678 31.837109 280.93365Q32.08711 280.4649 32.08711 279.9649Q32.08711 279.29303 31.680859 278.87115Q31.290234 278.43365 30.602734 278.43365Q29.805859 278.43365 29.352734 278.9024Q28.899609 279.35553 28.899609 280.18365L27.821484 280.18365Q27.821484 278.99615 28.571484 278.2774Q29.337109 277.54303 30.602734 277.54303Q31.805859 277.54303 32.49336 278.16803Q33.18086 278.79303 33.18086 279.8399Q33.18086 281.0899 31.571484 282.8399L29.290234 285.30865L33.571484 285.30865L33.571484 286.19928ZM35.477734 281.91803L35.915234 277.66803L40.290234 277.66803L40.290234 278.66803L36.83711 278.66803L36.571484 280.99615Q37.21211 280.62115 38.008984 280.62115Q39.165234 280.62115 39.852734 281.4024Q40.540234 282.16803 40.540234 283.48053Q40.540234 284.79303 39.821484 285.55865Q39.11836 286.32428 37.83711 286.32428Q36.71211 286.32428 35.99336 285.69928Q35.27461 285.05865 35.18086 283.94928L36.196484 283.94928Q36.30586 284.68365 36.727734 285.05865Q37.14961 285.43365 37.83711 285.43365Q38.58711 285.43365 39.02461 284.91803Q39.46211 284.4024 39.46211 283.49615Q39.46211 282.63678 38.99336 282.12115Q38.52461 281.60553 37.74336 281.60553Q37.040234 281.60553 36.633984 281.9024L36.352734 282.13678L35.477734 281.91803ZM42.11836 285.63678Q42.11836 285.35553 42.27461 285.16803Q42.446484 284.98053 42.77461 284.98053Q43.11836 284.98053 43.290234 285.16803Q43.46211 285.35553 43.46211 285.63678Q43.46211 285.9024 43.290234 286.0899Q43.11836 286.26178 42.77461 286.26178Q42.446484 286.26178 42.27461 286.0899Q42.11836 285.9024 42.11836 285.63678ZM50.33711 282.55865Q50.33711 284.4649 49.68086 285.4024Q49.040234 286.32428 47.64961 286.32428Q46.290234 286.32428 45.633984 285.41803Q44.977734 284.51178 44.946484 282.69928L44.946484 281.26178Q44.946484 279.37115 45.58711 278.4649Q46.24336 277.54303 47.633984 277.54303Q49.008984 277.54303 49.665234 278.43365Q50.321484 279.30865 50.33711 281.1524L50.33711 282.55865ZM49.24336 281.07428Q49.24336 279.69928 48.852734 279.07428Q48.477734 278.43365 47.633984 278.43365Q46.80586 278.43365 46.415234 279.07428Q46.040234 279.69928 46.040234 280.99615L46.040234 282.73053Q46.040234 284.10553 46.43086 284.7774Q46.83711 285.43365 47.64961 285.43365Q48.446484 285.43365 48.83711 284.80865Q49.227734 284.18365 49.24336 282.85553L49.24336 281.07428ZM57.33711 282.55865Q57.33711 284.4649 56.68086 285.4024Q56.040234 286.32428 54.64961 286.32428Q53.290234 286.32428 52.633984 285.41803Q51.977734 284.51178 51.946484 282.69928L51.946484 281.26178Q51.946484 279.37115 52.58711 278.4649Q53.24336 277.54303 54.633984 277.54303Q56.008984 277.54303 56.665234 278.43365Q57.321484 279.30865 57.33711 281.1524L57.33711 282.55865ZM56.24336 281.07428Q56.24336 279.69928 55.852734 279.07428Q55.477734 278.43365 54.633984 278.43365Q53.80586 278.43365 53.415234 279.07428Q53.040234 279.69928 53.040234 280.99615L53.040234 282.73053Q53.040234 284.10553 53.43086 284.7774Q53.83711 285.43365 54.64961 285.43365Q55.446484 285.43365 55.83711 284.80865Q56.227734 284.18365 56.24336 282.85553L56.24336 281.07428Z" fill-rule="nonzero"/><path fill="#757575" d="M28.477734 210.08348L28.915234 205.83348L33.290234 205.83348L33.290234 206.83348L29.837109 206.83348L29.571484 209.1616Q30.212109 208.7866 31.008984 208.7866Q32.165234 208.7866 32.852734 209.56786Q33.540234 210.33348 33.540234 211.64598Q33.540234 212.95848 32.821484 213.7241Q32.11836 214.48973 30.837109 214.48973Q29.712109 214.48973 28.993359 213.86473Q28.274609 213.2241 28.180859 212.11473L29.196484 212.11473Q29.305859 212.8491 29.727734 213.2241Q30.149609 213.5991 30.837109 213.5991Q31.587109 213.5991 32.02461 213.08348Q32.46211 212.56786 32.46211 211.6616Q32.46211 210.80223 31.993359 210.2866Q31.524609 209.77098 30.743359 209.77098Q30.040234 209.77098 29.633984 210.06786L29.352734 210.30223L28.477734 210.08348ZM40.33711 210.7241Q40.33711 212.63036 39.68086 213.56786Q39.040234 214.48973 37.64961 214.48973Q36.290234 214.48973 35.633984 213.58348Q34.977734 212.67723 34.946484 210.86473L34.946484 209.42723Q34.946484 207.5366 35.58711 206.63036Q36.24336 205.70848 37.633984 205.70848Q39.008984 205.70848 39.665234 206.5991Q40.321484 207.4741 40.33711 209.31786L40.33711 210.7241ZM39.24336 209.23973Q39.24336 207.86473 38.852734 207.23973Q38.477734 206.5991 37.633984 206.5991Q36.80586 206.5991 36.415234 207.23973Q36.040234 207.86473 36.040234 209.1616L36.040234 210.89598Q36.040234 212.27098 36.43086 212.94286Q36.83711 213.5991 37.64961 213.5991Q38.446484 213.5991 38.83711 212.9741Q39.227734 212.3491 39.24336 211.02098L39.24336 209.23973ZM42.11836 213.80223Q42.11836 213.52098 42.27461 213.33348Q42.446484 213.14598 42.77461 213.14598Q43.11836 213.14598 43.290234 213.33348Q43.46211 213.52098 43.46211 213.80223Q43.46211 214.06786 43.290234 214.25536Q43.11836 214.42723 42.77461 214.42723Q42.446484 214.42723 42.27461 214.25536Q42.11836 214.06786 42.11836 213.80223ZM50.33711 210.7241Q50.33711 212.63036 49.68086 213.56786Q49.040234 214.48973 47.64961 214.48973Q46.290234 214.48973 45.633984 213.58348Q44.977734 212.67723 44.946484 210.86473L44.946484 209.42723Q44.946484 207.5366 45.58711 206.63036Q46.24336 205.70848 47.633984 205.70848Q49.008984 205.70848 49.665234 206.5991Q50.321484 207.4741 50.33711 209.31786L50.33711 210.7241ZM49.24336 209.23973Q49.24336 207.86473 48.852734 207.23973Q48.477734 206.5991 47.633984 206.5991Q46.80586 206.5991 46.415234 207.23973Q46.040234 207.86473 46.040234 209.1616L46.040234 210.89598Q46.040234 212.27098 46.43086 212.94286Q46.83711 213.5991 47.64961 213.5991Q48.446484 213.5991 48.83711 212.9741Q49.227734 212.3491 49.24336 211.02098L49.24336 209.23973ZM57.33711 210.7241Q57.33711 212.63036 56.68086 213.56786Q56.040234 214.48973 54.64961 214.48973Q53.290234 214.48973 52.633984 213.58348Q51.977734 212.67723 51.946484 210.86473L51.946484 209.42723Q51.946484 207.5366 52.58711 206.63036Q53.24336 205.70848 54.633984 205.70848Q56.008984 205.70848 56.665234 206.5991Q57.321484 207.4741 57.33711 209.31786L57.33711 210.7241ZM56.24336 209.23973Q56.24336 207.86473 55.852734 207.23973Q55.477734 206.5991 54.633984 206.5991Q53.80586 206.5991 53.415234 207.23973Q53.040234 207.86473 53.040234 209.1616L53.040234 210.89598Q53.040234 212.27098 53.43086 212.94286Q53.83711 213.5991 54.64961 213.5991Q55.446484 213.5991 55.83711 212.9741Q56.227734 212.3491 56.24336 211.02098L56.24336 209.23973Z" fill-rule="nonzero"/><path fill="#757575" d="M33.49336 134.60832L29.962109 142.5302L28.821484 142.5302L32.33711 134.88957L27.727734 134.88957L27.727734 133.99895L33.49336 133.99895L33.49336 134.60832ZM35.477734 138.24895L35.915234 133.99895L40.290234 133.99895L40.290234 134.99895L36.83711 134.99895L36.571484 137.32707Q37.21211 136.95207 38.008984 136.95207Q39.165234 136.95207 39.852734 137.73332Q40.540234 138.49895 40.540234 139.81145Q40.540234 141.12395 39.821484 141.88957Q39.11836 142.6552 37.83711 142.6552Q36.71211 142.6552 35.99336 142.0302Q35.27461 141.38957 35.18086 140.2802L36.196484 140.2802Q36.30586 141.01457 36.727734 141.38957Q37.14961 141.76457 37.83711 141.76457Q38.58711 141.76457 39.02461 141.24895Q39.46211 140.73332 39.46211 139.82707Q39.46211 138.9677 38.99336 138.45207Q38.52461 137.93645 37.74336 137.93645Q37.040234 137.93645 36.633984 138.23332L36.352734 138.4677L35.477734 138.24895ZM42.11836 141.9677Q42.11836 141.68645 42.27461 141.49895Q42.446484 141.31145 42.77461 141.31145Q43.11836 141.31145 43.290234 141.49895Q43.46211 141.68645 43.46211 141.9677Q43.46211 142.23332 43.290234 142.42082Q43.11836 142.5927 42.77461 142.5927Q42.446484 142.5927 42.27461 142.42082Q42.11836 142.23332 42.11836 141.9677ZM50.33711 138.88957Q50.33711 140.79582 49.68086 141.73332Q49.040234 142.6552 47.64961 142.6552Q46.290234 142.6552 45.633984 141.74895Q44.977734 140.8427 44.946484 139.0302L44.946484 137.5927Q44.946484 135.70207 45.58711 134.79582Q46.24336 133.87395 47.633984 133.87395Q49.008984 133.87395 49.665234 134.76457Q50.321484 135.63957 50.33711 137.48332L50.33711 138.88957ZM49.24336 137.4052Q49.24336 136.0302 48.852734 135.4052Q48.477734 134.76457 47.633984 134.76457Q46.80586 134.76457 46.415234 135.4052Q46.040234 136.0302 46.040234 137.32707L46.040234 139.06145Q46.040234 140.43645 46.43086 141.10832Q46.83711 141.76457 47.64961 141.76457Q48.446484 141.76457 48.83711 141.13957Q49.227734 140.51457 49.24336 139.18645L49.24336 137.4052ZM57.33711 138.88957Q57.33711 140.79582 56.68086 141.73332Q56.040234 142.6552 54.64961 142.6552Q53.290234 142.6552 52.633984 141.74895Q51.977734 140.8427 51.946484 139.0302L51.946484 137.5927Q51.946484 135.70207 52.58711 134.79582Q53.24336 133.87395 54.633984 133.87395Q56.008984 133.87395 56.665234 134.76457Q57.321484 135.63957 57.33711 137.48332L57.33711 138.88957ZM56.24336 137.4052Q56.24336 136.0302 55.852734 135.4052Q55.477734 134.76457 54.633984 134.76457Q53.80586 134.76457 53.415234 135.4052Q53.040234 136.0302 53.040234 137.32707L53.040234 139.06145Q53.040234 140.43645 53.43086 141.10832Q53.83711 141.76457 54.64961 141.76457Q55.446484 141.76457 55.83711 141.13957Q56.227734 140.51457 56.24336 139.18645L56.24336 137.4052Z" fill-rule="nonzero"/><path fill="#757575" d="M24.540234 70.695656L23.462109 70.695656L23.462109 63.476906L21.274609 64.27378L21.274609 63.289406L24.383984 62.11753L24.540234 62.11753L24.540234 70.695656ZM33.33711 67.05503Q33.33711 68.96128 32.68086 69.89878Q32.040234 70.820656 30.649609 70.820656Q29.290234 70.820656 28.633984 69.914406Q27.977734 69.008156 27.946484 67.195656L27.946484 65.758156Q27.946484 63.86753 28.587109 62.96128Q29.243359 62.039406 30.633984 62.039406Q32.008984 62.039406 32.665234 62.93003Q33.321484 63.80503 33.33711 65.64878L33.33711 67.05503ZM32.24336 65.570656Q32.24336 64.195656 31.852734 63.570656Q31.477734 62.93003 30.633984 62.93003Q29.805859 62.93003 29.415234 63.570656Q29.040234 64.195656 29.040234 65.49253L29.040234 67.226906Q29.040234 68.601906 29.430859 69.27378Q29.837109 69.93003 30.649609 69.93003Q31.446484 69.93003 31.837109 69.30503Q32.227734 68.68003 32.24336 67.351906L32.24336 65.570656ZM40.33711 67.05503Q40.33711 68.96128 39.68086 69.89878Q39.040234 70.820656 37.64961 70.820656Q36.290234 70.820656 35.633984 69.914406Q34.977734 69.008156 34.946484 67.195656L34.946484 65.758156Q34.946484 63.86753 35.58711 62.96128Q36.24336 62.039406 37.633984 62.039406Q39.008984 62.039406 39.665234 62.93003Q40.321484 63.80503 40.33711 65.64878L40.33711 67.05503ZM39.24336 65.570656Q39.24336 64.195656 38.852734 63.570656Q38.477734 62.93003 37.633984 62.93003Q36.80586 62.93003 36.415234 63.570656Q36.040234 64.195656 36.040234 65.49253L36.040234 67.226906Q36.040234 68.601906 36.43086 69.27378Q36.83711 69.93003 37.64961 69.93003Q38.446484 69.93003 38.83711 69.30503Q39.227734 68.68003 39.24336 67.351906L39.24336 65.570656ZM42.11836 70.133156Q42.11836 69.851906 42.27461 69.664406Q42.446484 69.476906 42.77461 69.476906Q43.11836 69.476906 43.290234 69.664406Q43.46211 69.851906 43.46211 70.133156Q43.46211 70.39878 43.290234 70.58628Q43.11836 70.758156 42.77461 70.758156Q42.446484 70.758156 42.27461 70.58628Q42.11836 70.39878 42.11836 70.133156ZM50.33711 67.05503Q50.33711 68.96128 49.68086 69.89878Q49.040234 70.820656 47.64961 70.820656Q46.290234 70.820656 45.633984 69.914406Q44.977734 69.008156 44.946484 67.195656L44.946484 65.758156Q44.946484 63.86753 45.58711 62.96128Q46.24336 62.039406 47.633984 62.039406Q49.008984 62.039406 49.665234 62.93003Q50.321484 63.80503 50.33711 65.64878L50.33711 67.05503ZM49.24336 65.570656Q49.24336 64.195656 48.852734 63.570656Q48.477734 62.93003 47.633984 62.93003Q46.80586 62.93003 46.415234 63.570656Q46.040234 64.195656 46.040234 65.49253L46.040234 67.226906Q46.040234 68.601906 46.43086 69.27378Q46.83711 69.93003 47.64961 69.93003Q48.446484 69.93003 48.83711 69.30503Q49.227734 68.68003 49.24336 67.351906L49.24336 65.570656ZM57.33711 67.05503Q57.33711 68.96128 56.68086 69.89878Q56.040234 70.820656 54.64961 70.820656Q53.290234 70.820656 52.633984 69.914406Q51.977734 69.008156 51.946484 67.195656L51.946484 65.758156Q51.946484 63.86753 52.58711 62.96128Q53.24336 62.039406 54.633984 62.039406Q56.008984 62.039406 56.665234 62.93003Q57.321484 63.80503 57.33711 65.64878L57.33711 67.05503ZM56.24336 65.570656Q56.24336 64.195656 55.852734 63.570656Q55.477734 62.93003 54.633984 62.93003Q53.80586 62.93003 53.415234 63.570656Q53.040234 64.195656 53.040234 65.49253L53.040234 67.226906Q53.040234 68.601906 53.43086 69.27378Q53.83711 69.93003 54.64961 69.93003Q55.446484 69.93003 55.83711 69.30503Q56.227734 68.68003 56.24336 67.351906L56.24336 65.570656Z" fill-rule="nonzero"/><path fill="#757575" d="M110.647354 371.5338L110.647354 363.00256L113.06923 363.00256Q114.178604 363.00256 115.022354 363.50256Q115.88173 363.98694 116.35048 364.8932Q116.81923 365.79944 116.81923 366.98694L116.81923 367.5182Q116.81923 368.73694 116.35048 369.6432Q115.897354 370.54944 115.022354 371.0338Q114.16298 371.5182 113.022354 371.5338L110.647354 371.5338ZM111.772354 363.92444L111.772354 370.61194L112.959854 370.61194Q114.25673 370.61194 114.97548 369.81506Q115.709854 369.00256 115.709854 367.50256L115.709854 367.00256Q115.709854 365.54944 115.022354 364.75256Q114.35048 363.94006 113.084854 363.92444L111.772354 363.92444ZM121.116104 371.6588Q119.81923 371.6588 119.00673 370.81506Q118.209854 369.9557 118.209854 368.5338L118.209854 368.3463Q118.209854 367.3932 118.56923 366.6588Q118.928604 365.9088 119.56923 365.50256Q120.22548 365.0807 120.97548 365.0807Q122.209854 365.0807 122.897354 365.8932Q123.584854 366.7057 123.584854 368.2213L123.584854 368.67444L119.28798 368.67444Q119.31923 369.61194 119.834854 370.19006Q120.366104 370.7682 121.178604 370.7682Q121.741104 370.7682 122.13173 370.5338Q122.53798 370.29944 122.85048 369.9088L123.50673 370.42444Q122.709854 371.6588 121.116104 371.6588ZM120.97548 365.9713Q120.31923 365.9713 119.866104 366.4557Q119.428604 366.92444 119.334854 367.7838L122.50673 367.7838L122.50673 367.7057Q122.459854 366.87756 122.053604 366.42444Q121.66298 365.9713 120.97548 365.9713ZM127.022354 370.7682Q127.60048 370.7682 128.03798 370.42444Q128.47548 370.06506 128.52235 369.5338L129.5536 369.5338Q129.52235 370.0807 129.16298 370.5807Q128.81923 371.06506 128.2411 371.36194Q127.678604 371.6588 127.022354 371.6588Q125.72548 371.6588 124.959854 370.79944Q124.209854 369.92444 124.209854 368.42444L124.209854 368.23694Q124.209854 367.31506 124.53798 366.5963Q124.88173 365.87756 125.50673 365.48694Q126.147354 365.0807 127.022354 365.0807Q128.08485 365.0807 128.78798 365.7213Q129.50673 366.3463 129.5536 367.37756L128.52235 367.37756Q128.47548 366.75256 128.0536 366.36194Q127.63173 365.9713 127.022354 365.9713Q126.19423 365.9713 125.741104 366.56506Q125.28798 367.1588 125.28798 368.2838L125.28798 368.48694Q125.28798 369.5807 125.741104 370.17444Q126.19423 370.7682 127.022354 370.7682ZM134.14735 363.19006L134.02235 365.3463L133.27235 365.3463L133.27235 362.5338L134.14735 362.5338L134.14735 363.19006ZM138.9286 371.5338L137.85048 371.5338L137.85048 364.31506L135.66298 365.11194L135.66298 364.12756L138.77235 362.9557L138.9286 362.9557L138.9286 371.5338ZM147.5536 365.2213Q147.5536 365.86194 147.20985 366.36194Q146.8661 366.86194 146.3036 367.1432Q146.95985 367.42444 147.35048 367.98694Q147.7411 368.5338 147.7411 369.23694Q147.7411 370.3307 146.9911 371.00256Q146.25673 371.6588 145.03798 371.6588Q143.8036 371.6588 143.0536 371.00256Q142.31923 370.3307 142.31923 369.23694Q142.31923 368.5338 142.69423 367.98694Q143.06923 367.42444 143.7411 367.1432Q143.1786 366.86194 142.85048 366.36194Q142.52235 365.86194 142.52235 365.2213Q142.52235 364.1432 143.20985 363.5182Q143.89735 362.87756 145.03798 362.87756Q146.16298 362.87756 146.85048 363.5182Q147.5536 364.1432 147.5536 365.2213ZM146.66298 369.2057Q146.66298 368.48694 146.20985 368.04944Q145.75673 367.5963 145.02235 367.5963Q144.28798 367.5963 143.83485 368.04944Q143.39735 368.48694 143.39735 369.2213Q143.39735 369.94006 143.83485 370.36194Q144.27235 370.7682 145.03798 370.7682Q145.78798 370.7682 146.22548 370.3463Q146.66298 369.92444 146.66298 369.2057ZM145.03798 363.7682Q144.39735 363.7682 143.9911 364.17444Q143.60048 364.56506 143.60048 365.25256Q143.60048 365.8932 143.9911 366.29944Q144.38173 366.7057 145.02235 366.7057Q145.6786 366.7057 146.06923 366.29944Q146.45985 365.8932 146.45985 365.25256Q146.45985 364.5963 146.0536 364.19006Q145.64735 363.7682 145.03798 363.7682Z" fill-rule="nonzero"/><path fill="#757575" d="M209.85638 363.00256L210.99701 363.00256L210.99701 369.04944Q210.99701 370.2682 210.24701 370.9713Q209.51263 371.6588 208.29388 371.6588Q207.02826 371.6588 206.30951 371.00256Q205.60638 370.3463 205.60638 369.17444L206.73138 369.17444Q206.73138 369.9088 207.12201 370.3307Q207.52826 370.73694 208.29388 370.73694Q208.99701 370.73694 209.41888 370.29944Q209.85638 369.8463 209.85638 369.06506L209.85638 363.00256ZM217.02826 371.5338Q216.93451 371.3463 216.87201 370.86194Q216.12201 371.6588 215.07513 371.6588Q214.13763 371.6588 213.52826 371.12756Q212.93451 370.5963 212.93451 369.7682Q212.93451 368.7838 213.68451 368.23694Q214.43451 367.69006 215.80951 367.69006L216.85638 367.69006L216.85638 367.19006Q216.85638 366.62756 216.51263 366.29944Q216.18451 365.9557 215.51263 365.9557Q214.93451 365.9557 214.54388 366.25256Q214.15326 366.5338 214.15326 366.9557L213.05951 366.9557Q213.05951 366.4713 213.38763 366.0338Q213.73138 365.5963 214.30951 365.3463Q214.88763 365.0807 215.57513 365.0807Q216.68451 365.0807 217.29388 365.62756Q217.91888 366.17444 217.95013 367.12756L217.95013 370.04944Q217.95013 370.92444 218.16888 371.44006L218.16888 371.5338L217.02826 371.5338ZM215.23138 370.7057Q215.74701 370.7057 216.20013 370.44006Q216.65326 370.17444 216.85638 369.75256L216.85638 368.4557L216.01263 368.4557Q214.01263 368.4557 214.01263 369.62756Q214.01263 370.12756 214.35638 370.42444Q214.70013 370.7057 215.23138 370.7057ZM221.13763 365.19006L221.16888 365.98694Q221.90326 365.0807 223.07513 365.0807Q225.09076 365.0807 225.10638 367.3463L225.10638 371.5338L224.01263 371.5338L224.01263 367.3307Q224.01263 366.6588 223.70013 366.3307Q223.40326 366.00256 222.74701 366.00256Q222.21576 366.00256 221.80951 366.2838Q221.41888 366.56506 221.20013 367.0182L221.20013 371.5338L220.12201 371.5338L220.12201 365.19006L221.13763 365.19006ZM230.77826 363.19006L230.65326 365.3463L229.90326 365.3463L229.90326 362.5338L230.77826 362.5338L230.77826 363.19006ZM235.55951 371.5338L234.48138 371.5338L234.48138 364.31506L232.29388 365.11194L232.29388 364.12756L235.40326 362.9557L235.55951 362.9557L235.55951 371.5338ZM243.15326 367.7838Q242.82513 368.19006 242.34076 368.44006Q241.87201 368.67444 241.30951 368.67444Q240.57513 368.67444 240.02826 368.31506Q239.48138 367.9557 239.18451 367.29944Q238.88763 366.62756 238.88763 365.8307Q238.88763 364.98694 239.20013 364.29944Q239.52826 363.61194 240.12201 363.25256Q240.73138 362.87756 241.52826 362.87756Q242.79388 362.87756 243.51263 363.8307Q244.24701 364.7838 244.24701 366.4088L244.24701 366.7213Q244.24701 369.2213 243.26263 370.36194Q242.27826 371.50256 240.29388 371.5338L240.07513 371.5338L240.07513 370.62756L240.30951 370.62756Q241.65326 370.5963 242.37201 369.92444Q243.09076 369.25256 243.15326 367.7838ZM241.48138 367.7838Q242.02826 367.7838 242.48138 367.4557Q242.95013 367.11194 243.16888 366.62756L243.16888 366.19006Q243.16888 365.12756 242.70013 364.4557Q242.23138 363.7838 241.52826 363.7838Q240.80951 363.7838 240.37201 364.3307Q239.95013 364.87756 239.95013 365.7838Q239.95013 366.6588 240.35638 367.2213Q240.77826 367.7838 241.48138 367.7838Z" fill-rule="nonzero"/><path fill="#757575" d="M307.62793 367.7682L304.03418 367.7682L304.03418 371.5338L302.90918 371.5338L302.90918 363.00256L308.20605 363.00256L308.20605 363.92444L304.03418 363.92444L304.03418 366.8463L307.62793 366.8463L307.62793 367.7682ZM312.37793 371.6588Q311.08105 371.6588 310.26855 370.81506Q309.47168 369.9557 309.47168 368.5338L309.47168 368.3463Q309.47168 367.3932 309.83105 366.6588Q310.19043 365.9088 310.83105 365.50256Q311.4873 365.0807 312.2373 365.0807Q313.47168 365.0807 314.15918 365.8932Q314.84668 366.7057 314.84668 368.2213L314.84668 368.67444L310.5498 368.67444Q310.58105 369.61194 311.09668 370.19006Q311.62793 370.7682 312.44043 370.7682Q313.00293 370.7682 313.39355 370.5338Q313.7998 370.29944 314.1123 369.9088L314.76855 370.42444Q313.97168 371.6588 312.37793 371.6588ZM312.2373 365.9713Q311.58105 365.9713 311.12793 366.4557Q310.69043 366.92444 310.59668 367.7838L313.76855 367.7838L313.76855 367.7057Q313.72168 366.87756 313.31543 366.42444Q312.9248 365.9713 312.2373 365.9713ZM321.1123 368.44006Q321.1123 369.8932 320.44043 370.7838Q319.78418 371.6588 318.65918 371.6588Q317.45605 371.6588 316.7998 370.79944L316.7373 371.5338L315.75293 371.5338L315.75293 362.5338L316.83105 362.5338L316.83105 365.8932Q317.4873 365.0807 318.64355 365.0807Q319.7998 365.0807 320.45605 365.9557Q321.1123 366.81506 321.1123 368.3463L321.1123 368.44006ZM320.03418 368.31506Q320.03418 367.2057 319.59668 366.61194Q319.1748 366.00256 318.37793 366.00256Q317.2998 366.00256 316.83105 366.98694L316.83105 369.73694Q317.33105 370.73694 318.37793 370.73694Q319.15918 370.73694 319.59668 370.12756Q320.03418 369.5182 320.03418 368.31506ZM326.40918 363.19006L326.28418 365.3463L325.53418 365.3463L325.53418 362.5338L326.40918 362.5338L326.40918 363.19006ZM331.19043 371.5338L330.1123 371.5338L330.1123 364.31506L327.9248 365.11194L327.9248 364.12756L331.03418 362.9557L331.19043 362.9557L331.19043 371.5338ZM338.78418 367.7838Q338.45605 368.19006 337.97168 368.44006Q337.50293 368.67444 336.94043 368.67444Q336.20605 368.67444 335.65918 368.31506Q335.1123 367.9557 334.81543 367.29944Q334.51855 366.62756 334.51855 365.8307Q334.51855 364.98694 334.83105 364.29944Q335.15918 363.61194 335.75293 363.25256Q336.3623 362.87756 337.15918 362.87756Q338.4248 362.87756 339.14355 363.8307Q339.87793 364.7838 339.87793 366.4088L339.87793 366.7213Q339.87793 369.2213 338.89355 370.36194Q337.90918 371.50256 335.9248 371.5338L335.70605 371.5338L335.70605 370.62756L335.94043 370.62756Q337.28418 370.5963 338.00293 369.92444Q338.72168 369.25256 338.78418 367.7838ZM337.1123 367.7838Q337.65918 367.7838 338.1123 367.4557Q338.58105 367.11194 338.7998 366.62756L338.7998 366.19006Q338.7998 365.12756 338.33105 364.4557Q337.8623 363.7838 337.15918 363.7838Q336.44043 363.7838 336.00293 364.3307Q335.58105 364.87756 335.58105 365.7838Q335.58105 366.6588 335.9873 367.2213Q336.40918 367.7838 337.1123 367.7838Z" fill-rule="nonzero"/><path fill="#757575" d="M399.99323 363.00256L402.7901 369.9557L405.57135 363.00256L407.0401 363.00256L407.0401 371.5338L405.9151 371.5338L405.9151 368.2057L406.02448 364.62756L403.21198 371.5338L402.3526 371.5338L399.55573 364.6432L399.6651 368.2057L399.6651 371.5338L398.5401 371.5338L398.5401 363.00256L399.99323 363.00256ZM412.2901 371.5338Q412.19635 371.3463 412.13385 370.86194Q411.38385 371.6588 410.33698 371.6588Q409.39948 371.6588 408.7901 371.12756Q408.19635 370.5963 408.19635 369.7682Q408.19635 368.7838 408.94635 368.23694Q409.69635 367.69006 411.07135 367.69006L412.11823 367.69006L412.11823 367.19006Q412.11823 366.62756 411.77448 366.29944Q411.44635 365.9557 410.77448 365.9557Q410.19635 365.9557 409.80573 366.25256Q409.4151 366.5338 409.4151 366.9557L408.32135 366.9557Q408.32135 366.4713 408.64948 366.0338Q408.99323 365.5963 409.57135 365.3463Q410.14948 365.0807 410.83698 365.0807Q411.94635 365.0807 412.55573 365.62756Q413.18073 366.17444 413.21198 367.12756L413.21198 370.04944Q413.21198 370.92444 413.43073 371.44006L413.43073 371.5338L412.2901 371.5338ZM410.49323 370.7057Q411.00885 370.7057 411.46198 370.44006Q411.9151 370.17444 412.11823 369.75256L412.11823 368.4557L411.27448 368.4557Q409.27448 368.4557 409.27448 369.62756Q409.27448 370.12756 409.61823 370.42444Q409.96198 370.7057 410.49323 370.7057ZM418.44635 366.1588Q418.19635 366.12756 417.9151 366.12756Q416.83698 366.12756 416.46198 367.0338L416.46198 371.5338L415.38385 371.5338L415.38385 365.19006L416.43073 365.19006L416.44635 365.92444Q416.9776 365.0807 417.96198 365.0807Q418.27448 365.0807 418.44635 365.1588L418.44635 366.1588ZM423.0401 363.19006L422.9151 365.3463L422.1651 365.3463L422.1651 362.5338L423.0401 362.5338L423.0401 363.19006ZM427.82135 371.5338L426.74323 371.5338L426.74323 364.31506L424.55573 365.11194L424.55573 364.12756L427.6651 362.9557L427.82135 362.9557L427.82135 371.5338ZM435.4151 367.7838Q435.08698 368.19006 434.6026 368.44006Q434.13385 368.67444 433.57135 368.67444Q432.83698 368.67444 432.2901 368.31506Q431.74323 367.9557 431.44635 367.29944Q431.14948 366.62756 431.14948 365.8307Q431.14948 364.98694 431.46198 364.29944Q431.7901 363.61194 432.38385 363.25256Q432.99323 362.87756 433.7901 362.87756Q435.05573 362.87756 435.77448 363.8307Q436.50885 364.7838 436.50885 366.4088L436.50885 366.7213Q436.50885 369.2213 435.52448 370.36194Q434.5401 371.50256 432.55573 371.5338L432.33698 371.5338L432.33698 370.62756L432.57135 370.62756Q433.9151 370.5963 434.63385 369.92444Q435.3526 369.25256 435.4151 367.7838ZM433.74323 367.7838Q434.2901 367.7838 434.74323 367.4557Q435.21198 367.11194 435.43073 366.62756L435.43073 366.19006Q435.43073 365.12756 434.96198 364.4557Q434.49323 363.7838 433.7901 363.7838Q433.07135 363.7838 432.63385 364.3307Q432.21198 364.87756 432.21198 365.7838Q432.21198 366.6588 432.61823 367.2213Q433.0401 367.7838 433.74323 367.7838Z" fill-rule="nonzero"/><path fill="#757575" d="M500.38977 369.29944L496.81165 369.29944L496.01477 371.5338L494.85852 371.5338L498.10852 363.00256L499.0929 363.00256L502.35852 371.5338L501.20227 371.5338L500.38977 369.29944ZM497.1554 368.37756L500.06165 368.37756L498.60852 364.3932L497.1554 368.37756ZM508.85852 368.44006Q508.85852 369.87756 508.20227 370.7682Q507.54602 371.6588 506.4054 371.6588Q505.24915 371.6588 504.5929 370.92444L504.5929 373.9713L503.51477 373.9713L503.51477 365.19006L504.49915 365.19006L504.54602 365.8932Q505.2179 365.0807 506.38977 365.0807Q507.5304 365.0807 508.18665 365.94006Q508.85852 366.79944 508.85852 368.3307L508.85852 368.44006ZM507.7804 368.31506Q507.7804 367.23694 507.31165 366.62756Q506.85852 366.00256 506.06165 366.00256Q505.07727 366.00256 504.5929 366.86194L504.5929 369.8932Q505.07727 370.7682 506.07727 370.7682Q506.85852 370.7682 507.31165 370.1588Q507.7804 369.5338 507.7804 368.31506ZM513.5773 366.1588Q513.3273 366.12756 513.046 366.12756Q511.9679 366.12756 511.5929 367.0338L511.5929 371.5338L510.51477 371.5338L510.51477 365.19006L511.56165 365.19006L511.57727 365.92444Q512.1085 365.0807 513.0929 365.0807Q513.4054 365.0807 513.5773 365.1588L513.5773 366.1588ZM518.171 363.19006L518.046 365.3463L517.296 365.3463L517.296 362.5338L518.171 362.5338L518.171 363.19006ZM522.9523 371.5338L521.87415 371.5338L521.87415 364.31506L519.68665 365.11194L519.68665 364.12756L522.796 362.9557L522.9523 362.9557L522.9523 371.5338ZM530.546 367.7838Q530.2179 368.19006 529.7335 368.44006Q529.2648 368.67444 528.7023 368.67444Q527.9679 368.67444 527.421 368.31506Q526.87415 367.9557 526.5773 367.29944Q526.2804 366.62756 526.2804 365.8307Q526.2804 364.98694 526.5929 364.29944Q526.921 363.61194 527.5148 363.25256Q528.12415 362.87756 528.921 362.87756Q530.18665 362.87756 530.9054 363.8307Q531.6398 364.7838 531.6398 366.4088L531.6398 366.7213Q531.6398 369.2213 530.6554 370.36194Q529.671 371.50256 527.68665 371.5338L527.4679 371.5338L527.4679 370.62756L527.7023 370.62756Q529.046 370.5963 529.7648 369.92444Q530.4835 369.25256 530.546 367.7838ZM528.87415 367.7838Q529.421 367.7838 529.87415 367.4557Q530.3429 367.11194 530.56165 366.62756L530.56165 366.19006Q530.56165 365.12756 530.0929 364.4557Q529.62415 363.7838 528.921 363.7838Q528.2023 363.7838 527.7648 364.3307Q527.3429 364.87756 527.3429 365.7838Q527.3429 366.6588 527.74915 367.2213Q528.171 367.7838 528.87415 367.7838Z" fill-rule="nonzero"/><path fill="#434343" d="M184.15224 39.3L184.15224 25.08125L188.16786 25.08125Q190.01161 25.08125 191.43349 25.909374Q192.87099 26.721874 193.63661 28.2375Q194.41786 29.753124 194.43349 31.70625L194.43349 32.6125Q194.43349 34.628124 193.65224 36.14375Q192.87099 37.659374 191.43349 38.471874Q189.99599 39.284374 188.08974 39.3L184.15224 39.3ZM186.02724 26.628124L186.02724 37.76875L187.99599 37.76875Q190.16786 37.76875 191.37099 36.425Q192.57411 35.065624 192.57411 32.58125L192.57411 31.753124Q192.57411 29.33125 191.43349 27.9875Q190.29286 26.64375 188.21474 26.628124L186.02724 26.628124ZM198.82411 39.3L197.02724 39.3L197.02724 28.7375L198.82411 28.7375L198.82411 39.3ZM196.87099 25.925Q196.87099 25.4875 197.13661 25.190624Q197.41786 24.878124 197.93349 24.878124Q198.46474 24.878124 198.73036 25.190624Q199.01161 25.4875 199.01161 25.925Q199.01161 26.3625 198.73036 26.659374Q198.46474 26.95625 197.93349 26.95625Q197.41786 26.95625 197.13661 26.659374Q196.87099 26.3625 196.87099 25.925ZM208.01161 36.503124Q208.01161 35.76875 207.46474 35.3625Q206.91786 34.95625 205.54286 34.659374Q204.16786 34.3625 203.35536 33.95625Q202.55849 33.55 202.16786 32.9875Q201.79286 32.409374 201.79286 31.628124Q201.79286 30.33125 202.88661 29.440624Q203.98036 28.534374 205.69911 28.534374Q207.49599 28.534374 208.60536 29.471874Q209.73036 30.39375 209.73036 31.83125L207.90224 31.83125Q207.90224 31.096874 207.27724 30.565624Q206.65224 30.01875 205.69911 30.01875Q204.69911 30.01875 204.13661 30.45625Q203.58974 30.878124 203.58974 31.58125Q203.58974 32.221874 204.10536 32.565624Q204.62099 32.89375 205.98036 33.20625Q207.33974 33.503124 208.16786 33.925Q209.01161 34.33125 209.41786 34.925Q209.82411 35.51875 209.82411 36.3625Q209.82411 37.784374 208.68349 38.64375Q207.55849 39.503124 205.74599 39.503124Q204.48036 39.503124 203.49599 39.05Q202.52724 38.596874 201.96474 37.8Q201.41786 36.9875 201.41786 36.05L203.23036 36.05Q203.27724 36.95625 203.94911 37.4875Q204.63661 38.01875 205.74599 38.01875Q206.77724 38.01875 207.38661 37.6125Q208.01161 37.190624 208.01161 36.503124ZM214.30849 26.175L214.30849 28.7375L216.29286 28.7375L216.29286 30.128124L214.30849 30.128124L214.30849 36.675Q214.30849 37.315624 214.57411 37.64375Q214.83974 37.95625 215.48036 37.95625Q215.79286 37.95625 216.33974 37.83125L216.33974 39.3Q215.62099 39.503124 214.94911 39.503124Q213.74599 39.503124 213.12099 38.76875Q212.51161 38.034374 212.51161 36.675L212.51161 30.128124L210.58974 30.128124L210.58974 28.7375L212.51161 28.7375L212.51161 26.175L214.30849 26.175ZM223.96474 30.346874Q223.55849 30.284374 223.08974 30.284374Q221.30849 30.284374 220.66786 31.8L220.66786 39.3L218.87099 39.3L218.87099 28.7375L220.62099 28.7375L220.65224 29.95625Q221.54286 28.534374 223.16786 28.534374Q223.69911 28.534374 223.96474 28.675L223.96474 30.346874ZM227.82411 39.3L226.02724 39.3L226.02724 28.7375L227.82411 28.7375L227.82411 39.3ZM225.87099 25.925Q225.87099 25.4875 226.13661 25.190624Q226.41786 24.878124 226.93349 24.878124Q227.46474 24.878124 227.73036 25.190624Q228.01161 25.4875 228.01161 25.925Q228.01161 26.3625 227.73036 26.659374Q227.46474 26.95625 226.93349 26.95625Q226.41786 26.95625 226.13661 26.659374Q225.87099 26.3625 225.87099 25.925ZM239.80849 34.128124Q239.80849 36.55 238.69911 38.034374Q237.58974 39.503124 235.71474 39.503124Q233.69911 39.503124 232.60536 38.08125L232.52724 39.3L230.87099 39.3L230.87099 24.3L232.66786 24.3L232.66786 29.89375Q233.76161 28.534374 235.68349 28.534374Q237.60536 28.534374 238.69911 29.9875Q239.80849 31.440624 239.80849 33.971874L239.80849 34.128124ZM237.99599 33.925Q237.99599 32.08125 237.27724 31.08125Q236.57411 30.065624 235.24599 30.065624Q233.44911 30.065624 232.66786 31.7375L232.66786 36.3Q233.49599 37.95625 235.26161 37.95625Q236.55849 37.95625 237.27724 36.95625Q237.99599 35.95625 237.99599 33.925ZM248.38661 38.253124Q247.33974 39.503124 245.29286 39.503124Q243.60536 39.503124 242.71474 38.51875Q241.83974 37.534374 241.82411 35.6125L241.82411 28.7375L243.63661 28.7375L243.63661 35.565624Q243.63661 37.95625 245.58974 37.95625Q247.65224 37.95625 248.33974 36.425L248.33974 28.7375L250.15224 28.7375L250.15224 39.3L248.43349 39.3L248.38661 38.253124ZM255.30849 26.175L255.30849 28.7375L257.29285 28.7375L257.29285 30.128124L255.30849 30.128124L255.30849 36.675Q255.30849 37.315624 255.57411 37.64375Q255.83974 37.95625 256.48035 37.95625Q256.79285 37.95625 257.33972 37.83125L257.33972 39.3Q256.62097 39.503124 255.94911 39.503124Q254.74599 39.503124 254.12099 38.76875Q253.51161 38.034374 253.51161 36.675L253.51161 30.128124L251.58974 30.128124L251.58974 28.7375L253.51161 28.7375L253.51161 26.175L255.30849 26.175ZM261.8241 39.3L260.02722 39.3L260.02722 28.7375L261.8241 28.7375L261.8241 39.3ZM259.87097 25.925Q259.87097 25.4875 260.1366 25.190624Q260.41785 24.878124 260.93347 24.878124Q261.46472 24.878124 261.73035 25.190624Q262.0116 25.4875 262.0116 25.925Q262.0116 26.3625 261.73035 26.659374Q261.46472 26.95625 260.93347 26.95625Q260.41785 26.95625 260.1366 26.659374Q259.87097 26.3625 259.87097 25.925ZM264.3866 33.925Q264.3866 32.3625 264.99597 31.128124Q265.60535 29.878124 266.68347 29.20625Q267.77722 28.534374 269.18347 28.534374Q271.33972 28.534374 272.66785 30.034374Q274.0116 31.51875 274.0116 34.003124L274.0116 34.128124Q274.0116 35.675 273.41785 36.909374Q272.8241 38.128124 271.71472 38.815624Q270.62097 39.503124 269.1991 39.503124Q267.05847 39.503124 265.71472 38.003124Q264.3866 36.503124 264.3866 34.05L264.3866 33.925ZM266.1991 34.128124Q266.1991 35.89375 267.0116 36.95625Q267.83972 38.01875 269.1991 38.01875Q270.5741 38.01875 271.3866 36.940624Q272.1991 35.8625 272.1991 33.925Q272.1991 32.175 271.37097 31.096874Q270.54285 30.01875 269.18347 30.01875Q267.83972 30.01875 267.0116 31.08125Q266.1991 32.14375 266.1991 34.128124ZM277.5741 28.7375L277.6366 30.065624Q278.83972 28.534374 280.79285 28.534374Q284.15222 28.534374 284.16785 32.315624L284.16785 39.3L282.37097 39.3L282.37097 32.3Q282.35535 31.159374 281.83972 30.6125Q281.33972 30.065624 280.24597 30.065624Q279.37097 30.065624 278.6991 30.534374Q278.04285 31.003124 277.66785 31.76875L277.66785 39.3L275.87097 39.3L275.87097 28.7375L277.5741 28.7375ZM291.3866 33.925Q291.3866 32.3625 291.99597 31.128124Q292.60535 29.878124 293.68347 29.20625Q294.77722 28.534374 296.18347 28.534374Q298.33972 28.534374 299.66785 30.034374Q301.0116 31.51875 301.0116 34.003124L301.0116 34.128124Q301.0116 35.675 300.41785 36.909374Q299.8241 38.128124 298.71472 38.815624Q297.62097 39.503124 296.1991 39.503124Q294.05847 39.503124 292.71472 38.003124Q291.3866 36.503124 291.3866 34.05L291.3866 33.925ZM293.1991 34.128124Q293.1991 35.89375 294.0116 36.95625Q294.83972 38.01875 296.1991 38.01875Q297.5741 38.01875 298.3866 36.940624Q299.1991 35.8625 299.1991 33.925Q299.1991 32.175 298.37097 31.096874Q297.54285 30.01875 296.18347 30.01875Q294.83972 30.01875 294.0116 31.08125Q293.1991 32.14375 293.1991 34.128124ZM303.74597 39.3L303.74597 30.128124L302.08972 30.128124L302.08972 28.7375L303.74597 28.7375L303.74597 27.64375Q303.74597 25.95625 304.65222 25.034374Q305.5741 24.096874 307.23035 24.096874Q307.85535 24.096874 308.46472 24.253124L308.37097 25.721874Q307.91785 25.64375 307.40222 25.64375Q306.5116 25.64375 306.02722 26.159374Q305.55847 26.659374 305.55847 27.6125L305.55847 28.7375L307.80847 28.7375L307.80847 30.128124L305.55847 30.128124L305.55847 39.3L303.74597 39.3ZM318.21472 34.815624L318.48035 36.690624L318.8866 35.003124L321.6991 25.08125L323.27722 25.08125L326.02722 35.003124L326.41785 36.721874L326.71472 34.8L328.93347 25.08125L330.80847 25.08125L327.37097 39.3L325.65222 39.3L322.73035 28.940624L322.49597 27.846874L322.27722 28.940624L319.24597 39.3L317.52722 39.3L314.08972 25.08125L315.96472 25.08125L318.21472 34.815624ZM332.3866 33.925Q332.3866 32.3625 332.99597 31.128124Q333.60535 29.878124 334.68347 29.20625Q335.77722 28.534374 337.18347 28.534374Q339.33972 28.534374 340.66785 30.034374Q342.0116 31.51875 342.0116 34.003124L342.0116 34.128124Q342.0116 35.675 341.41785 36.909374Q340.8241 38.128124 339.71472 38.815624Q338.62097 39.503124 337.1991 39.503124Q335.05847 39.503124 333.71472 38.003124Q332.3866 36.503124 332.3866 34.05L332.3866 33.925ZM334.1991 34.128124Q334.1991 35.89375 335.0116 36.95625Q335.83972 38.01875 337.1991 38.01875Q338.5741 38.01875 339.3866 36.940624Q340.1991 35.8625 340.1991 33.925Q340.1991 32.175 339.37097 31.096874Q338.54285 30.01875 337.18347 30.01875Q335.83972 30.01875 335.0116 31.08125Q334.1991 32.14375 334.1991 34.128124ZM348.96472 30.346874Q348.55847 30.284374 348.08972 30.284374Q346.30847 30.284374 345.66785 31.8L345.66785 39.3L343.87097 39.3L343.87097 28.7375L345.62097 28.7375L345.65222 29.95625Q346.54285 28.534374 348.16785 28.534374Q348.6991 28.534374 348.96472 28.675L348.96472 30.346874ZM353.80847 34.409374L352.68347 35.58125L352.68347 39.3L350.87097 39.3L350.87097 24.3L352.68347 24.3L352.68347 33.378124L353.65222 32.20625L356.93347 28.7375L359.1366 28.7375L355.02722 33.14375L359.62097 39.3L357.49597 39.3L353.80847 34.409374ZM377.0741 39.3L375.18347 39.3L375.18347 32.721874L368.02722 32.721874L368.02722 39.3L366.15222 39.3L366.15222 25.08125L368.02722 25.08125L368.02722 31.190624L375.18347 31.190624L375.18347 25.08125L377.0741 25.08125L377.0741 39.3ZM379.3866 33.925Q379.3866 32.3625 379.99597 31.128124Q380.60535 29.878124 381.68347 29.20625Q382.77722 28.534374 384.18347 28.534374Q386.33972 28.534374 387.66785 30.034374Q389.0116 31.51875 389.0116 34.003124L389.0116 34.128124Q389.0116 35.675 388.41785 36.909374Q387.8241 38.128124 386.71472 38.815624Q385.62097 39.503124 384.1991 39.503124Q382.05847 39.503124 380.71472 38.003124Q379.3866 36.503124 379.3866 34.05L379.3866 33.925ZM381.1991 34.128124Q381.1991 35.89375 382.0116 36.95625Q382.83972 38.01875 384.1991 38.01875Q385.5741 38.01875 386.3866 36.940624Q387.1991 35.8625 387.1991 33.925Q387.1991 32.175 386.37097 31.096874Q385.54285 30.01875 384.18347 30.01875Q382.83972 30.01875 382.0116 31.08125Q381.1991 32.14375 381.1991 34.128124ZM397.3866 38.253124Q396.33972 39.503124 394.29285 39.503124Q392.60535 39.503124 391.71472 38.51875Q390.83972 37.534374 390.8241 35.6125L390.8241 28.7375L392.6366 28.7375L392.6366 35.565624Q392.6366 37.95625 394.58972 37.95625Q396.65222 37.95625 397.33972 36.425L397.33972 28.7375L399.15222 28.7375L399.15222 39.3L397.43347 39.3L397.3866 38.253124ZM406.96472 30.346874Q406.55847 30.284374 406.08972 30.284374Q404.30847 30.284374 403.66785 31.8L403.66785 39.3L401.87097 39.3L401.87097 28.7375L403.62097 28.7375L403.65222 29.95625Q404.54285 28.534374 406.16785 28.534374Q406.6991 28.534374 406.96472 28.675L406.96472 30.346874ZM415.0116 36.503124Q415.0116 35.76875 414.46472 35.3625Q413.91785 34.95625 412.54285 34.659374Q411.16785 34.3625 410.35535 33.95625Q409.55847 33.55 409.16785 32.9875Q408.79285 32.409374 408.79285 31.628124Q408.79285 30.33125 409.8866 29.440624Q410.98035 28.534374 412.6991 28.534374Q414.49597 28.534374 415.60535 29.471874Q416.73035 30.39375 416.73035 31.83125L414.90222 31.83125Q414.90222 31.096874 414.27722 30.565624Q413.65222 30.01875 412.6991 30.01875Q411.6991 30.01875 411.1366 30.45625Q410.58972 30.878124 410.58972 31.58125Q410.58972 32.221874 411.10535 32.565624Q411.62097 32.89375 412.98035 33.20625Q414.33972 33.503124 415.16785 33.925Q416.0116 34.33125 416.41785 34.925Q416.8241 35.51875 416.8241 36.3625Q416.8241 37.784374 415.68347 38.64375Q414.55847 39.503124 412.74597 39.503124Q411.48035 39.503124 410.49597 39.05Q409.52722 38.596874 408.96472 37.8Q408.41785 36.9875 408.41785 36.05L410.23035 36.05Q410.27722 36.95625 410.9491 37.4875Q411.6366 38.01875 412.74597 38.01875Q413.77722 38.01875 414.3866 37.6125Q415.0116 37.190624 415.0116 36.503124Z" fill-rule="nonzero"/></svg>